<mxfile host="app.diagrams.net" agent="Mozilla/5.0 (Windows NT 10.0; Win64; x64) AppleWebKit/537.36 (KHTML, like Gecko) Chrome/137.0.0.0 Safari/537.36" version="28.0.4">
  <diagram name="Page-1" id="vDPmCMRCrs8i0Nkya4ln">
    <mxGraphModel dx="524" dy="278" grid="1" gridSize="10" guides="1" tooltips="1" connect="1" arrows="1" fold="1" page="1" pageScale="1" pageWidth="480" pageHeight="270" math="0" shadow="0">
      <root>
        <mxCell id="0" />
        <mxCell id="1" parent="0" />
        <mxCell id="d7KSbqTcqm2eqZKMLA8o-1" value="" style="rounded=0;whiteSpace=wrap;html=1;movable=1;resizable=1;rotatable=1;deletable=1;editable=1;locked=0;connectable=1;strokeColor=#333333;fillColor=#333333;" parent="1" vertex="1">
          <mxGeometry width="480" height="270" as="geometry" />
        </mxCell>
        <mxCell id="JT2W8pzzwDjzHQ6tP14--1" value="&lt;div&gt;&lt;font style=&quot;font-size: 8px;&quot;&gt;&lt;br&gt;&lt;/font&gt;&lt;/div&gt;&lt;div&gt;&lt;span style=&quot;font-size: 8px;&quot;&gt;&lt;br&gt;void deploy();&lt;/span&gt;&lt;/div&gt;&lt;div&gt;&lt;font style=&quot;&quot;&gt;&lt;span style=&quot;background-color: transparent; font-size: 8px;&quot;&gt;void failure();&lt;/span&gt;&lt;span style=&quot;font-size: 8px;&quot;&gt;&amp;nbsp;&lt;/span&gt;&lt;br&gt;&lt;br&gt;&lt;/font&gt;&lt;/div&gt;" style="rounded=0;whiteSpace=wrap;html=1;fillColor=#d5e8d4;strokeColor=#82b366;" vertex="1" parent="1">
          <mxGeometry x="20" y="30" width="120" height="85" as="geometry" />
        </mxCell>
        <mxCell id="JT2W8pzzwDjzHQ6tP14--2" value="&lt;div&gt;&lt;font style=&quot;font-size: 8px;&quot;&gt;&lt;br&gt;void start();&amp;nbsp; &amp;nbsp; &amp;nbsp; &amp;nbsp; &amp;nbsp;&amp;nbsp;&lt;/font&gt;&lt;/div&gt;&lt;div&gt;&lt;font style=&quot;font-size: 8px;&quot;&gt;&amp;nbsp; void stop();&amp;nbsp; &amp;nbsp; &amp;nbsp; &amp;nbsp; &amp;nbsp; &amp;nbsp;&amp;nbsp;&lt;br&gt;&lt;/font&gt;&lt;span style=&quot;font-size: 8px; background-color: transparent; color: light-dark(rgb(0, 0, 0), rgb(255, 255, 255));&quot;&gt;void accelerate();&lt;/span&gt;&lt;/div&gt;" style="rounded=0;whiteSpace=wrap;html=1;fillColor=#d5e8d4;strokeColor=#82b366;" vertex="1" parent="1">
          <mxGeometry x="180" y="30" width="120" height="85" as="geometry" />
        </mxCell>
        <mxCell id="JT2W8pzzwDjzHQ6tP14--3" value="&lt;div&gt;&lt;font style=&quot;font-size: 8px;&quot;&gt;&lt;br&gt;void start();&lt;/font&gt;&lt;/div&gt;&lt;div&gt;&lt;font style=&quot;font-size: 8px;&quot;&gt;void stop();&lt;/font&gt;&lt;/div&gt;&lt;div&gt;&lt;font style=&quot;font-size: 8px;&quot;&gt;void failure();&lt;/font&gt;&lt;/div&gt;" style="rounded=0;whiteSpace=wrap;html=1;fillColor=#d5e8d4;strokeColor=#82b366;" vertex="1" parent="1">
          <mxGeometry x="340" y="30" width="120" height="85" as="geometry" />
        </mxCell>
        <mxCell id="JT2W8pzzwDjzHQ6tP14--4" value="&lt;b&gt;&lt;font style=&quot;color: rgb(255, 51, 51);&quot;&gt;&amp;nbsp;AirBags&lt;/font&gt;&lt;/b&gt;" style="text;html=1;align=center;verticalAlign=middle;whiteSpace=wrap;rounded=0;" vertex="1" parent="1">
          <mxGeometry x="20" y="30" width="110" height="30" as="geometry" />
        </mxCell>
        <mxCell id="JT2W8pzzwDjzHQ6tP14--5" value="&lt;b&gt;&lt;font style=&quot;color: rgb(255, 51, 51);&quot;&gt;Engine&amp;nbsp;&amp;nbsp;&lt;/font&gt;&lt;/b&gt;" style="text;html=1;align=center;verticalAlign=middle;whiteSpace=wrap;rounded=0;" vertex="1" parent="1">
          <mxGeometry x="185" y="30" width="110" height="30" as="geometry" />
        </mxCell>
        <mxCell id="JT2W8pzzwDjzHQ6tP14--6" value="&lt;b&gt;&lt;font style=&quot;color: rgb(255, 51, 51);&quot;&gt;Brake&lt;/font&gt;&lt;/b&gt;" style="text;html=1;align=center;verticalAlign=middle;whiteSpace=wrap;rounded=0;" vertex="1" parent="1">
          <mxGeometry x="350" y="30" width="110" height="30" as="geometry" />
        </mxCell>
        <mxCell id="JT2W8pzzwDjzHQ6tP14--8" value="" style="rounded=0;whiteSpace=wrap;html=1;" vertex="1" parent="1">
          <mxGeometry x="180" y="140" width="120" height="120" as="geometry" />
        </mxCell>
      </root>
    </mxGraphModel>
  </diagram>
</mxfile>
